<svg height="512" viewBox="0 0 512 512" width="512" xmlns="http://www.w3.org/2000/svg" xmlns:xlink="http://www.w3.org/1999/xlink"><linearGradient id="linear-gradient" gradientUnits="userSpaceOnUse" x1="34.26" x2="477.74" y1="384.02" y2="127.98"><stop offset="0" stop-color="#0052ff"/><stop offset="1" stop-color="#00a7ff"/></linearGradient><g id="Layer_2" data-name="Layer 2"><g id="Layer_1-2" data-name="Layer 1"><circle cx="256" cy="256" fill="url(#linear-gradient)" r="256"/><g fill="#fff"><path d="m343.31 316.08a11.19 11.19 0 0 0 -11.19 11.2v24.62a11.19 11.19 0 1 0 22.38 0v-24.62a11.19 11.19 0 0 0 -11.19-11.2z"/><path d="m288.46 275.23v76.67a11.2 11.2 0 1 0 22.39 0v-76.67a11.2 11.2 0 1 0 -22.39 0z"/><path d="m388.09 209.18a11.19 11.19 0 0 0 -11.2 11.2v124.25a44.82 44.82 0 0 1 -44.77 44.77h-152.24a44.77 44.77 0 0 1 -44.77-44.77v-152.24a44.76 44.76 0 0 1 44.77-44.77h109.7a37.49 37.49 0 1 0 .8-22.39h-110.5a67.16 67.16 0 0 0 -67.16 67.16v152.24a67.16 67.16 0 0 0 67.16 67.16h152.24a67.16 67.16 0 0 0 67.16-67.16v-124.25a11.19 11.19 0 0 0 -11.19-11.2z"/><path d="m201.71 241.64v110.26a11.2 11.2 0 1 0 22.39 0v-110.26a11.2 11.2 0 0 0 -22.39 0z"/><path d="m244.81 202.47v149.43a11.19 11.19 0 1 0 22.38 0v-149.43a11.19 11.19 0 1 0 -22.38 0z"/><path d="m169.25 293.7a11.2 11.2 0 0 0 -11.2 11.19v47a11.2 11.2 0 1 0 22.39 0v-47a11.19 11.19 0 0 0 -11.19-11.19z"/></g></g></g></svg>