<svg height="512" viewBox="0 0 512 512" width="512" xmlns="http://www.w3.org/2000/svg" xmlns:xlink="http://www.w3.org/1999/xlink"><linearGradient id="linear-gradient" gradientUnits="userSpaceOnUse" x1="34.26" x2="477.74" y1="384.02" y2="127.98"><stop offset="0" stop-color="#0052ff"/><stop offset="1" stop-color="#00a7ff"/></linearGradient><g id="Layer_2" data-name="Layer 2"><g id="Layer_1-2" data-name="Layer 1"><circle cx="256" cy="256" fill="url(#linear-gradient)" r="256"/><g fill="#fff"><path d="m337.15 230.7a11.17 11.17 0 0 0 -11.15 9.94 95.73 95.73 0 1 1 -56.77-97.58 37.48 37.48 0 1 0 12.51-18.89 117.53 117.53 0 0 0 -51.29-11.56c-64.73.19-117.58 53.07-117.74 117.79a118.1 118.1 0 0 0 235.54 12.71 11.2 11.2 0 0 0 -11.1-12.41z"/><path d="m396 380.28-50.09-50.09a11.19 11.19 0 0 0 -15.83 15.81l50.09 50.09a11.19 11.19 0 1 0 15.83-15.81z"/></g></g></g></svg>