<svg version="1.1" id="Layer_1" xmlns="http://www.w3.org/2000/svg" xmlns:xlink="http://www.w3.org/1999/xlink" x="0px" y="0px" viewBox="0 0 512 512" style="enable-background:new 0 0 512 512;" xml:space="preserve">
<g>
	<linearGradient id="SVGID_1_" gradientUnits="userSpaceOnUse" x1="33.65" y1="256" x2="478.35" y2="256">
		<stop offset="0" style="stop-color:#00F2FE"/>
		<stop offset="0.0208" style="stop-color:#03EFFE"/>
		<stop offset="0.2931" style="stop-color:#24D2FE"/>
		<stop offset="0.5538" style="stop-color:#3CBDFE"/>
		<stop offset="0.7956" style="stop-color:#4AB0FE"/>
		<stop offset="1" style="stop-color:#4FACFE"/>
	</linearGradient>
	
		<path style="fill:none;stroke:url(#SVGID_1_);stroke-width:40;stroke-linecap:round;stroke-linejoin:round;stroke-miterlimit:10;" d="&#10;&#9;&#9;M257.709,251.882h-78.9c-20.91,0-37.86-16.951-37.86-37.86v-68.939c0-20.91,16.951-37.86,37.86-37.86h78.9&#10;&#9;&#9;c20.91,0,37.86,16.951,37.86,37.86v68.939C295.569,234.932,278.619,251.882,257.709,251.882z M265.691,67.432&#10;&#9;&#9;c0-26.196-21.236-47.432-47.432-47.432h0c-26.196,0-47.432,21.236-47.432,47.432v39.791h94.864V67.432z M333.459,394.839v70.845&#10;&#9;&#9;c0,19.852,21.164,32.536,38.668,23.174l4.455-2.383c7.742-4.141,17.041-4.141,24.783,0l4.455,2.383&#10;&#9;&#9;c17.504,9.362,38.668-3.322,38.668-23.174v-70.845 M388.974,282.599c-38.315,0-69.376,31.064-69.376,69.384&#10;&#9;&#9;s31.061,69.384,69.376,69.384s69.376-31.064,69.376-69.384S427.289,282.599,388.974,282.599z M147.26,339.424h171.338&#10;&#9;&#9; M388.974,182.599v-15.376c0-33.137-26.863-60-60-60H113.65c-33.137,0-60,26.863-60,60v220.662&#10;&#9;&#9;c0,33.099,26.832,59.931,59.931,59.931h215.463 M218.259,179.552L218.259,179.552"/>
</g>
<g>
</g>
<g>
</g>
<g>
</g>
<g>
</g>
<g>
</g>
<g>
</g>
<g>
</g>
<g>
</g>
<g>
</g>
<g>
</g>
<g>
</g>
<g>
</g>
<g>
</g>
<g>
</g>
<g>
</g>
</svg>