<svg id="Layer_1" enable-background="new 0 0 512 512" viewBox="0 0 512 512" xmlns="http://www.w3.org/2000/svg" xmlns:xlink="http://www.w3.org/1999/xlink"><linearGradient id="SVGID_1_" gradientUnits="userSpaceOnUse" x1="144.116" x2="432.726" y1="562.415" y2="62.528"><stop offset="0" stop-color="#57ffd9"/><stop offset="1" stop-color="#2a6eff"/></linearGradient><path d="m470.59 114.077-53.72-41.511c-4.133-3.194-9.598-3.754-14.262-1.464-4.7 2.31-7.617 6.99-7.614 12.209v16.908c-16.632 2.439-32.649 8.582-46.692 17.843v-36.19h15.71c5.223 0 9.901-2.919 12.208-7.618 2.29-4.662 1.728-10.125-1.465-14.258l-41.511-53.719c-2.591-3.354-6.507-5.277-10.742-5.277s-8.15 1.923-10.741 5.276l-41.512 53.72c-3.194 4.134-3.754 9.599-1.462 14.262 2.308 4.697 6.984 7.613 12.199 7.613h.009 15.708v36.19c-14.044-9.261-30.061-15.403-46.693-17.843v-16.902c.003-5.224-2.914-9.903-7.613-12.213-4.664-2.292-10.129-1.731-14.263 1.463l-53.721 41.512c-3.353 2.593-5.275 6.508-5.275 10.742s1.924 8.148 5.277 10.74l53.719 41.512c4.134 3.194 9.597 3.755 14.26 1.465 4.699-2.309 7.617-6.987 7.616-12.208v-13.514c18.449 4.997 33.734 18.174 41.423 35.796-24.915 11.714-42.213 37.044-42.213 66.35 0 26.686 14.343 50.077 35.719 62.892-4.82 1.483-9.564 3.266-14.227 5.332-.47-.036-.941-.072-1.42-.072h-47.789v-20.523c0-12.995-10.572-23.567-23.567-23.567h-71.974c-12.995 0-23.567 10.572-23.567 23.567v20.522h-47.79c-10.186 0-18.472 8.286-18.472 18.472v143.573c0 14.249 11.593 25.842 25.842 25.842h199.946c14.25 0 25.842-11.593 25.842-25.842v-36.127h155.527c4.418 0 8-3.582 8-8 0-57.944-38.469-107.068-91.206-123.189 21.366-12.818 35.7-36.204 35.7-62.881 0-29.305-17.298-54.635-42.213-66.35 7.69-17.62 22.976-30.798 41.423-35.796v13.511c-.001 5.224 2.917 9.902 7.616 12.211 4.665 2.291 10.128 1.729 14.26-1.465l53.719-41.512c3.353-2.591 5.276-6.506 5.277-10.74s-1.922-8.15-5.276-10.742zm-352.195 188.513c0-4.173 3.395-7.567 7.567-7.567h71.974c4.173 0 7.567 3.395 7.567 7.567v20.522h-5.188v-14.901c0-4.418-3.582-8-8-8h-60.732c-4.418 0-8 3.582-8 8v14.901h-5.188zm65.92 20.523h-44.732v-6.901h44.732zm-132.181 18.471c0-1.34 1.132-2.472 2.472-2.472h214.687c1.34 0 2.472 1.132 2.472 2.472v53.056.01c-.005 9.244-7.528 16.765-16.774 16.765h-186.083c-9.25 0-16.774-7.525-16.774-16.774zm97.318 85.831h24.993v8.744h-24.993zm112.47 67.585h-199.946c-5.427 0-9.842-4.415-9.842-9.842l.001-62.375c4.91 2.938 10.647 4.631 16.773 4.631h64.544v11.227c0 7.453 6.063 13.518 13.517 13.518h29.96c7.453 0 13.517-6.064 13.517-13.518v-11.227h64.544c6.127 0 11.864-1.694 16.774-4.632l.001 62.375c-.001 5.427-4.416 9.843-9.843 9.843zm173.088-61.969h-147.246v-91.446c0-2.603-.547-5.079-1.523-7.327 11.632-3.993 23.783-6.015 36.262-6.015 59.5 0 108.387 46.317 112.507 104.788zm-55.226-178.071c0 31.586-25.697 57.282-57.282 57.282s-57.282-25.696-57.282-57.282 25.697-57.282 57.282-57.282 57.282 25.697 57.282 57.282zm31.21-93.568v-18.261c0-2.288-.979-4.467-2.691-5.984-1.711-1.519-3.992-2.235-6.263-1.958-28.501 3.425-52.734 22.044-63.65 48.244-5.119-1.136-10.431-1.755-15.888-1.755-5.456 0-10.769.618-15.888 1.755-10.916-26.2-35.148-44.819-63.65-48.244-2.272-.278-4.551.439-6.263 1.958-1.711 1.518-2.691 3.696-2.691 5.984v18.261l-47.329-36.574 47.329-36.572v19.114c0 4.171 3.205 7.643 7.363 7.975 21.372 1.706 41.966 10.558 57.989 24.923 2.351 2.108 5.72 2.637 8.602 1.349 2.882-1.287 4.738-4.148 4.738-7.305v-60.43c0-4.418-3.582-8-8-8h-18.774l36.573-47.329 36.573 47.329h-18.773c-4.418 0-8 3.582-8 8v60.43c0 3.156 1.856 6.018 4.738 7.305 2.883 1.289 6.252.76 8.602-1.349 16.022-14.365 36.616-23.217 57.989-24.923 4.158-.332 7.363-3.804 7.363-7.975v-19.114l47.329 36.573zm-313.923 236.002h129.756c4.418 0 8-3.582 8-8v-28.261c0-4.418-3.582-8-8-8h-129.756c-4.418 0-8 3.582-8 8v28.261c0 4.418 3.581 8 8 8zm8-28.261h113.756v12.261h-113.756z" fill="url(#SVGID_1_)"/></svg>