<svg id="Layer_1" enable-background="new 0 0 24 24" height="512" viewBox="0 0 24 24" width="512" xmlns="http://www.w3.org/2000/svg"><circle cx="12" cy="12" fill="#2f80ed" r="12"/><g><g><path d="m4.8 9.6c-.5 0-.8-.3-.8-.8v-3.2c0-.9.7-1.6 1.6-1.6h3.2c.5 0 .8.3.8.8s-.3.8-.8.8h-3.2v3.2c0 .5-.3.8-.8.8z" fill="#fff"/></g><g><path d="m8.8 20h-3.2c-.9 0-1.6-.7-1.6-1.6v-3.2c0-.5.3-.8.8-.8s.8.3.8.8v3.2h3.2c.5 0 .8.3.8.8s-.3.8-.8.8z" fill="#fff"/></g><g><path d="m18.4 20h-3.2c-.5 0-.8-.3-.8-.8s.3-.8.8-.8h3.2v-3.2c0-.5.3-.8.8-.8s.8.3.8.8v3.2c0 .9-.7 1.6-1.6 1.6z" fill="#fff"/></g><g><path d="m19.2 9.6c-.5 0-.8-.3-.8-.8v-3.2h-3.2c-.5 0-.8-.3-.8-.8s.3-.8.8-.8h3.2c.9 0 1.6.7 1.6 1.6v3.2c0 .5-.3.8-.8.8z" fill="#fff"/></g><g><path d="m12 15.6c-2 0-3.6-1.6-3.6-3.6s1.6-3.6 3.6-3.6 3.6 1.6 3.6 3.6-1.6 3.6-3.6 3.6zm0-5.6c-1.1 0-2 .9-2 2s.9 2 2 2 2-.9 2-2-.9-2-2-2z" fill="#fff"/></g><g><path d="m12 10c-.5 0-.8-.3-.8-.8v-1.6c0-.5.3-.8.8-.8s.8.3.8.8v1.6c0 .5-.3.8-.8.8z" fill="#fff"/></g><g><path d="m12 17.2c-.5 0-.8-.3-.8-.8v-1.6c0-.5.3-.8.8-.8s.8.3.8.8v1.6c0 .5-.3.8-.8.8z" fill="#fff"/></g><g><path d="m16.4 12.8h-1.6c-.5 0-.8-.3-.8-.8s.3-.8.8-.8h1.6c.5 0 .8.3.8.8s-.3.8-.8.8z" fill="#fff"/></g><g><path d="m9.2 12.8h-1.6c-.5 0-.8-.3-.8-.8s.3-.8.8-.8h1.6c.5 0 .8.3.8.8s-.3.8-.8.8z" fill="#fff"/></g><g><path d="m12 12.8c.5 0 .8-.3.8-.8s-.3-.8-.8-.8-.8.3-.8.8.3.8.8.8z" fill="#fff"/></g></g></svg>