<svg id="Layer_1" enable-background="new 0 0 512 512" viewBox="0 0 512 512" xmlns="http://www.w3.org/2000/svg" xmlns:xlink="http://www.w3.org/1999/xlink"><linearGradient id="SVGID_1_" gradientUnits="userSpaceOnUse" x1="11.71" x2="500.29" y1="256" y2="256"><stop offset="0" stop-color="#a647fe"/><stop offset=".1488" stop-color="#a04cfc"/><stop offset=".3414" stop-color="#905af8"/><stop offset=".5582" stop-color="#7571f0"/><stop offset=".7908" stop-color="#5191e5"/><stop offset="1" stop-color="#29b4d9"/></linearGradient><path d="m115.53 120.4c2.75 2.75 6.39 4.13 10.02 4.13 3.57 0 7.15-1.33 9.88-4 32.45-31.62 75.27-49.04 120.57-49.04 45.29 0 88.09 17.42 120.56 49.07 5.53 5.34 14.45 5.27 19.88-.16l30.53-30.53c2.72-2.72 4.16-6.19 4.16-10.05 0-3.88-1.48-7.38-4.27-10.11-45.94-44.95-106.62-69.71-170.86-69.71-64.26 0-124.94 24.76-170.94 69.78-2.69 2.69-4.15 6.12-4.21 9.92v.13c0 3.79 1.42 7.24 4.16 10.05zm140.47-104.41c59.42 0 115.58 22.67 158.36 63.88l-27.96 27.96c-35.28-33.75-81.52-52.32-130.4-52.32-48.9 0-95.14 18.57-130.43 52.33l-27.96-27.97c42.77-41.21 98.95-63.88 158.39-63.88zm244.29 228.3c0-41.49-10.62-82.51-30.69-118.59-2.16-3.93-5.95-6.55-10.41-7.19-4.43-.63-8.81.83-12 4.02l-32.06 32.06c-4.28 4.28-5.38 10.58-2.79 16.07 10.91 23.11 16.44 47.88 16.44 73.63 0 44.69-16.64 86.36-47.07 118.51-17.21-29.89-49.49-50.05-86.39-50.05h-26.14c-.01 0-.02 0-.03 0h-26.32c-.02 0-.04 0-.06 0h-26.09c-36.91 0-69.19 20.17-86.41 50.05-30.43-32.17-47.07-73.84-47.07-118.51 0-25.75 5.53-50.52 16.44-73.64 2.6-5.52 1.48-11.84-2.8-16.06l-32-32c-3.17-3.23-7.56-4.72-12.06-4.08-4.46.64-8.14 3.16-10.39 7.15-20.08 36.09-30.69 77.11-30.69 118.63 0 80.4 39.3 155.2 105.33 200.95v44.81c0 12.1 9.86 21.94 21.97 21.94h233.97c12.1 0 21.94-9.84 21.94-21.94v-44.81c66.07-45.76 105.38-120.55 105.38-200.95zm-231.28 161.67-13.01 23.09-13.04-23.09 7.2-77.22h11.65zm-241.31-161.67c0-38.01 9.51-75.57 27.5-108.74l29.44 29.45c-11.56 24.93-17.43 51.6-17.43 79.3 0 26.58 5.42 52.29 16.12 76.41 9.58 21.59 22.93 40.94 39.72 57.59-3.88 10.63-6 22.11-6 34.07v13.09c-56.21-43.17-89.35-109.8-89.35-181.17zm345.29 251.72h-44.5v-77.36c0-4.42-3.58-7.99-7.99-7.99s-7.99 3.58-7.99 7.99v77.36h-113.03v-77.36c0-4.42-3.58-7.99-7.99-7.99s-7.99 3.58-7.99 7.99v77.36h-44.48c-3.24 0-5.98-2.73-5.98-5.95v-49.08-28.62c0-11.42 2.31-22.3 6.47-32.23.23-.41.41-.84.56-1.27 12.95-29.47 42.41-50.12 76.62-50.12h17.42l-7.29 78.23c-.15 1.62.2 3.25 1 4.67l21.23 37.62c1.42 2.51 4.08 4.06 6.96 4.06 2.88 0 5.54-1.56 6.96-4.07l21.2-37.62c.8-1.42 1.15-3.05 1-4.67l-7.29-78.23h17.45c34.19 0 63.64 20.64 76.59 50.1.15.45.34.88.57 1.31 4.16 9.92 6.46 20.8 6.46 32.21v28.62 49.08c-.01 3.23-2.74 5.96-5.96 5.96zm21.94-70.56v-13.09c0-11.96-2.12-23.43-6-34.07 16.8-16.64 30.15-35.99 39.73-57.59 10.69-24.11 16.11-49.82 16.11-76.41 0-27.7-5.86-54.38-17.43-79.3l29.44-29.44c18.02 33.23 27.53 70.77 27.53 108.74-.01 71.36-33.16 137.99-89.38 181.16zm-50.24-200.89c5.16-1.69 8.62-6.49 8.62-11.93v-15.42c0-5.43-3.46-10.21-8.65-11.91l-9.7-3.14c-1.71-5.91-4.06-11.6-7.03-16.96l4.63-9.1c2.46-4.85 1.53-10.69-2.32-14.54l-10.89-10.92c-3.84-3.84-9.69-4.77-14.55-2.29l-9.09 4.63c-5.35-2.96-11.04-5.32-16.96-7.03l-3.15-9.72c-1.69-5.16-6.49-8.62-11.93-8.62h-15.39c-5.44 0-10.24 3.46-11.94 8.65l-3.14 9.7c-5.96 1.72-11.66 4.09-16.95 7.03l-9.11-4.64c-4.86-2.47-10.7-1.55-14.55 2.3l-10.88 10.91c-3.85 3.85-4.79 9.7-2.32 14.55l4.63 9.09c-2.96 5.36-5.32 11.04-7.03 16.97l-9.69 3.14c-5.17 1.7-8.65 6.48-8.65 11.9v15.42c0 5.44 3.47 10.23 8.67 11.94l9.67 3.13c1.73 5.96 4.09 11.67 7.03 16.96l-4.61 9.06c-2.5 4.85-1.58 10.71 2.3 14.59l10.89 10.89c3.85 3.85 9.7 4.79 14.55 2.32l9.1-4.64c5.31 2.95 10.98 5.3 16.95 7.03l3.14 9.7c1.7 5.17 6.49 8.65 11.93 8.65h15.39c5.44 0 10.24-3.48 11.94-8.67l3.13-9.67c5.91-1.71 11.6-4.06 16.97-7.03l9.1 4.63c4.85 2.46 10.69 1.52 14.54-2.33l10.89-10.89c3.88-3.88 4.8-9.74 2.32-14.55l-4.63-9.1c2.95-5.31 5.3-10.98 7.03-16.94zm-24.67-2.75c-1.54 5.82-3.84 11.35-6.87 16.51-2.13 3.74-2.23 8.23-.29 11.96l4.33 8.5-7.36 7.36-8.44-4.3c-3.82-1.99-8.32-1.87-12.06.3-5.14 3-10.68 5.3-16.43 6.82-4.1 1.06-7.37 4.11-8.74 8.15-.01.03-.02.07-.03.1l-2.94 9.07h-10.4l-2.93-9.05c-1.32-4.12-4.62-7.21-8.74-8.26-5.82-1.54-11.35-3.84-16.51-6.87-3.74-2.13-8.23-2.23-11.96-.29l-8.5 4.33-7.36-7.36 4.3-8.44c1.97-3.79 1.87-8.28-.31-12.1-2.98-5.08-5.28-10.61-6.8-16.35-1.07-4.2-4.16-7.5-8.26-8.81l-9.07-2.94v-10.4l9.07-2.94c.03-.01.07-.02.1-.03 4.04-1.37 7.08-4.64 8.13-8.7 1.53-5.78 3.83-11.32 6.83-16.47 2.18-3.73 2.29-8.24.33-11.99l-4.33-8.5 7.34-7.36 8.57 4.36c3.84 1.92 8.18 1.81 11.99-.37 5.07-2.98 10.59-5.27 16.4-6.81 4.2-1.09 7.47-4.2 8.76-8.27l2.93-9.04h10.42l2.95 9.1c1.36 4.08 4.63 7.15 8.72 8.21 5.78 1.53 11.32 3.82 16.46 6.83 3.66 2.14 8.12 2.27 11.99.33l8.52-4.34 7.34 7.36-4.3 8.44c-1.98 3.82-1.87 8.32.3 12.06 3 5.14 5.3 10.68 6.82 16.43 1.07 4.12 4.14 7.39 8.28 8.77l9.04 2.93v10.42l-8.98 2.91c-4.14 1.29-7.26 4.6-8.31 8.74zm-64.02-63.44c-25.68 0-46.57 20.88-46.57 46.54s20.89 46.54 46.57 46.54c25.67 0 46.54-20.88 46.54-46.54s-20.87-46.54-46.54-46.54zm0 77.11c-16.87 0-30.59-13.71-30.59-30.56s13.72-30.56 30.59-30.56c16.85 0 30.56 13.71 30.56 30.56s-13.71 30.56-30.56 30.56z" fill="url(#SVGID_1_)"/></svg>